<mxfile host="app.diagrams.net" agent="Mozilla/5.0 (Windows NT 10.0; Win64; x64) AppleWebKit/537.36 (KHTML, like Gecko) Chrome/138.0.0.0 Safari/537.36" version="28.1.0">
  <diagram name="Page-1" id="ASVvkTFuvb0_CSqJP2uL">
    <mxGraphModel dx="1143" dy="601" grid="1" gridSize="10" guides="1" tooltips="1" connect="1" arrows="1" fold="1" page="1" pageScale="1" pageWidth="827" pageHeight="1169" math="0" shadow="0">
      <root>
        <mxCell id="0" />
        <mxCell id="1" parent="0" />
        <mxCell id="q_EZk4i5SjFY1UHl6m1U-3" value="" style="edgeStyle=orthogonalEdgeStyle;rounded=0;orthogonalLoop=1;jettySize=auto;html=1;" edge="1" parent="1" source="q_EZk4i5SjFY1UHl6m1U-1" target="q_EZk4i5SjFY1UHl6m1U-2">
          <mxGeometry relative="1" as="geometry" />
        </mxCell>
        <mxCell id="q_EZk4i5SjFY1UHl6m1U-1" value="Schedule &amp;amp; RTC" style="rounded=0;whiteSpace=wrap;html=1;" vertex="1" parent="1">
          <mxGeometry x="80" y="120" width="120" height="60" as="geometry" />
        </mxCell>
        <mxCell id="q_EZk4i5SjFY1UHl6m1U-5" value="" style="edgeStyle=orthogonalEdgeStyle;rounded=0;orthogonalLoop=1;jettySize=auto;html=1;" edge="1" parent="1" source="q_EZk4i5SjFY1UHl6m1U-2" target="q_EZk4i5SjFY1UHl6m1U-4">
          <mxGeometry relative="1" as="geometry" />
        </mxCell>
        <mxCell id="q_EZk4i5SjFY1UHl6m1U-7" value="" style="edgeStyle=orthogonalEdgeStyle;rounded=0;orthogonalLoop=1;jettySize=auto;html=1;" edge="1" parent="1" source="q_EZk4i5SjFY1UHl6m1U-2" target="q_EZk4i5SjFY1UHl6m1U-6">
          <mxGeometry relative="1" as="geometry" />
        </mxCell>
        <mxCell id="q_EZk4i5SjFY1UHl6m1U-2" value="Control/Logic&lt;div&gt;(MCU)&lt;/div&gt;" style="rounded=0;whiteSpace=wrap;html=1;" vertex="1" parent="1">
          <mxGeometry x="280" y="120" width="120" height="60" as="geometry" />
        </mxCell>
        <mxCell id="q_EZk4i5SjFY1UHl6m1U-4" value="Actuators/Alerts" style="rounded=0;whiteSpace=wrap;html=1;" vertex="1" parent="1">
          <mxGeometry x="480" y="120" width="120" height="60" as="geometry" />
        </mxCell>
        <mxCell id="q_EZk4i5SjFY1UHl6m1U-9" value="" style="edgeStyle=orthogonalEdgeStyle;rounded=0;orthogonalLoop=1;jettySize=auto;html=1;" edge="1" parent="1" source="q_EZk4i5SjFY1UHl6m1U-6" target="q_EZk4i5SjFY1UHl6m1U-8">
          <mxGeometry relative="1" as="geometry" />
        </mxCell>
        <mxCell id="q_EZk4i5SjFY1UHl6m1U-6" value="Sensors" style="rounded=0;whiteSpace=wrap;html=1;" vertex="1" parent="1">
          <mxGeometry x="280" y="280" width="120" height="60" as="geometry" />
        </mxCell>
        <mxCell id="q_EZk4i5SjFY1UHl6m1U-8" value="Logs" style="rounded=0;whiteSpace=wrap;html=1;" vertex="1" parent="1">
          <mxGeometry x="280" y="440" width="120" height="60" as="geometry" />
        </mxCell>
        <mxCell id="q_EZk4i5SjFY1UHl6m1U-10" value="" style="endArrow=classic;html=1;rounded=0;exitX=0.5;exitY=1;exitDx=0;exitDy=0;entryX=1;entryY=0.5;entryDx=0;entryDy=0;" edge="1" parent="1" source="q_EZk4i5SjFY1UHl6m1U-4" target="q_EZk4i5SjFY1UHl6m1U-6">
          <mxGeometry width="50" height="50" relative="1" as="geometry">
            <mxPoint x="480" y="270" as="sourcePoint" />
            <mxPoint x="530" y="360" as="targetPoint" />
            <Array as="points">
              <mxPoint x="540" y="310" />
            </Array>
          </mxGeometry>
        </mxCell>
      </root>
    </mxGraphModel>
  </diagram>
</mxfile>
